<?xml version="1.0" encoding="UTF-8"?>
<svg width="128" height="128" viewBox="0 0 128 128" fill="none" xmlns="http://www.w3.org/2000/svg">
  <rect width="128" height="128" rx="64" fill="#3B82F6"/>
  <path d="M64 32C45.2 32 30 47.2 30 66C30 84.8 45.2 100 64 100C82.8 100 98 84.8 98 66C98 47.2 82.8 32 64 32ZM64 92C49.6 92 38 80.4 38 66C38 51.6 49.6 40 64 40C78.4 40 90 51.6 90 66C90 80.4 78.4 92 64 92Z" fill="white"/>
  <circle cx="52" cy="66" r="6" fill="white"/>
  <circle cx="76" cy="66" r="6" fill="white"/>
  <path d="M64 78C58.5 78 54 82.5 54 88H74C74 82.5 69.5 78 64 78Z" fill="white"/>
</svg> 